<mxfile host="app.diagrams.net" modified="2023-12-25T08:59:58.485Z" agent="Mozilla/5.0 (Macintosh; Intel Mac OS X 10_15_7) AppleWebKit/537.36 (KHTML, like Gecko) Chrome/116.0.0.0 Whale/3.22.205.18 Safari/537.36" etag="qI3mRIZIb5_z9uWfTZz9" version="21.5.2" type="github">
  <diagram name="페이지-1" id="Xa38Sybxr32NkZHonVsy">
    <mxGraphModel dx="2806" dy="879" grid="1" gridSize="10" guides="1" tooltips="1" connect="1" arrows="1" fold="1" page="1" pageScale="1" pageWidth="1169" pageHeight="827" math="0" shadow="0">
      <root>
        <mxCell id="0" />
        <mxCell id="1" parent="0" />
        <mxCell id="zmSvyfduXFzZ5QXLBwxS-8" value="" style="rounded=1;whiteSpace=wrap;html=1;fillColor=none;opacity=20;" vertex="1" parent="1">
          <mxGeometry x="-1930" y="30" width="180" height="680" as="geometry" />
        </mxCell>
        <mxCell id="pZGgupdEHR9cw1bb7QeQ-54" value="" style="rounded=1;whiteSpace=wrap;html=1;fillColor=none;opacity=20;" parent="1" vertex="1">
          <mxGeometry x="-2090" y="30" width="140" height="680" as="geometry" />
        </mxCell>
        <mxCell id="PRsRDHQmLPShGL4FB_sg-14" value="" style="endArrow=classic;html=1;rounded=0;" parent="1" edge="1">
          <mxGeometry width="50" height="50" relative="1" as="geometry">
            <mxPoint x="-2160" y="90" as="sourcePoint" />
            <mxPoint x="-2040" y="130" as="targetPoint" />
          </mxGeometry>
        </mxCell>
        <mxCell id="PRsRDHQmLPShGL4FB_sg-77" value="&lt;font style=&quot;font-size: 11px;&quot;&gt;Process Message&lt;/font&gt;" style="text;html=1;strokeColor=none;fillColor=none;align=center;verticalAlign=middle;whiteSpace=wrap;rounded=0;" parent="1" vertex="1">
          <mxGeometry x="-2261.4799999999996" y="170" width="90.74" height="30" as="geometry" />
        </mxCell>
        <mxCell id="pZGgupdEHR9cw1bb7QeQ-1" value="" style="endArrow=none;html=1;rounded=0;fillColor=#ffe6cc;strokeColor=#d79b00;strokeWidth=4;jumpStyle=none;" parent="1" edge="1">
          <mxGeometry width="50" height="50" relative="1" as="geometry">
            <mxPoint x="-2160" y="700" as="sourcePoint" />
            <mxPoint x="-2160" y="80" as="targetPoint" />
          </mxGeometry>
        </mxCell>
        <mxCell id="pZGgupdEHR9cw1bb7QeQ-2" value="Consumer A" style="text;html=1;strokeColor=none;fillColor=none;align=center;verticalAlign=middle;whiteSpace=wrap;rounded=0;" parent="1" vertex="1">
          <mxGeometry x="-2195" y="30" width="70" height="30" as="geometry" />
        </mxCell>
        <mxCell id="pZGgupdEHR9cw1bb7QeQ-3" value="" style="endArrow=none;html=1;rounded=0;fillColor=#dae8fc;strokeColor=#6c8ebf;strokeWidth=4;" parent="1" edge="1">
          <mxGeometry width="50" height="50" relative="1" as="geometry">
            <mxPoint x="-2040" y="700" as="sourcePoint" />
            <mxPoint x="-2040" y="80" as="targetPoint" />
          </mxGeometry>
        </mxCell>
        <mxCell id="pZGgupdEHR9cw1bb7QeQ-4" value="Kafka Topic" style="text;html=1;strokeColor=none;fillColor=none;align=center;verticalAlign=middle;whiteSpace=wrap;rounded=0;" parent="1" vertex="1">
          <mxGeometry x="-2060" y="30" width="70" height="30" as="geometry" />
        </mxCell>
        <mxCell id="pZGgupdEHR9cw1bb7QeQ-5" value="" style="endArrow=none;html=1;rounded=0;fillColor=#f8cecc;strokeColor=#b85450;strokeWidth=4;" parent="1" edge="1">
          <mxGeometry width="50" height="50" relative="1" as="geometry">
            <mxPoint x="-2000" y="240" as="sourcePoint" />
            <mxPoint x="-2000" y="80" as="targetPoint" />
          </mxGeometry>
        </mxCell>
        <mxCell id="pZGgupdEHR9cw1bb7QeQ-7" value="Partition 1" style="text;html=1;strokeColor=none;fillColor=none;align=center;verticalAlign=middle;whiteSpace=wrap;rounded=0;" parent="1" vertex="1">
          <mxGeometry x="-2090" y="50" width="70" height="30" as="geometry" />
        </mxCell>
        <mxCell id="pZGgupdEHR9cw1bb7QeQ-8" value="Partition 2" style="text;html=1;strokeColor=none;fillColor=none;align=center;verticalAlign=middle;whiteSpace=wrap;rounded=0;" parent="1" vertex="1">
          <mxGeometry x="-2020" y="50" width="70" height="30" as="geometry" />
        </mxCell>
        <mxCell id="pZGgupdEHR9cw1bb7QeQ-9" value="Consumer B" style="text;html=1;strokeColor=none;fillColor=none;align=center;verticalAlign=middle;whiteSpace=wrap;rounded=0;" parent="1" vertex="1">
          <mxGeometry x="-1860" y="30" width="70" height="30" as="geometry" />
        </mxCell>
        <mxCell id="pZGgupdEHR9cw1bb7QeQ-13" value="" style="endArrow=classic;html=1;rounded=0;" parent="1" edge="1">
          <mxGeometry width="50" height="50" relative="1" as="geometry">
            <mxPoint x="-2040" y="130" as="sourcePoint" />
            <mxPoint x="-2160" y="170" as="targetPoint" />
          </mxGeometry>
        </mxCell>
        <mxCell id="pZGgupdEHR9cw1bb7QeQ-14" value="&lt;font style=&quot;font-size: 9px;&quot;&gt;Poll&lt;/font&gt;" style="text;html=1;strokeColor=none;fillColor=none;align=center;verticalAlign=middle;whiteSpace=wrap;rounded=0;" parent="1" vertex="1">
          <mxGeometry x="-2125" y="90" width="60" height="30" as="geometry" />
        </mxCell>
        <mxCell id="pZGgupdEHR9cw1bb7QeQ-15" value="" style="endArrow=classic;html=1;rounded=0;" parent="1" edge="1">
          <mxGeometry width="50" height="50" relative="1" as="geometry">
            <mxPoint x="-2170.74" y="170" as="sourcePoint" />
            <mxPoint x="-2170.74" y="240" as="targetPoint" />
          </mxGeometry>
        </mxCell>
        <mxCell id="pZGgupdEHR9cw1bb7QeQ-18" value="" style="endArrow=classic;html=1;rounded=0;" parent="1" edge="1">
          <mxGeometry width="50" height="50" relative="1" as="geometry">
            <mxPoint x="-2160" y="240" as="sourcePoint" />
            <mxPoint x="-2040" y="280" as="targetPoint" />
          </mxGeometry>
        </mxCell>
        <mxCell id="pZGgupdEHR9cw1bb7QeQ-19" value="" style="endArrow=classic;html=1;rounded=0;" parent="1" edge="1">
          <mxGeometry width="50" height="50" relative="1" as="geometry">
            <mxPoint x="-2040" y="280" as="sourcePoint" />
            <mxPoint x="-2160" y="320" as="targetPoint" />
          </mxGeometry>
        </mxCell>
        <mxCell id="pZGgupdEHR9cw1bb7QeQ-20" value="&lt;font style=&quot;font-size: 9px;&quot;&gt;Poll&lt;/font&gt;" style="text;html=1;strokeColor=none;fillColor=none;align=center;verticalAlign=middle;whiteSpace=wrap;rounded=0;" parent="1" vertex="1">
          <mxGeometry x="-2125" y="240" width="60" height="30" as="geometry" />
        </mxCell>
        <mxCell id="pZGgupdEHR9cw1bb7QeQ-28" value="" style="endArrow=none;dashed=1;html=1;rounded=0;fillColor=#f8cecc;strokeColor=#b85450;strokeWidth=2;dashPattern=1 2;" parent="1" edge="1">
          <mxGeometry width="50" height="50" relative="1" as="geometry">
            <mxPoint x="-2020" y="240" as="sourcePoint" />
            <mxPoint x="-1640" y="240" as="targetPoint" />
          </mxGeometry>
        </mxCell>
        <mxCell id="pZGgupdEHR9cw1bb7QeQ-49" value="&lt;font style=&quot;font-size: 9px;&quot;&gt;Processing&lt;br&gt;paused&lt;br&gt;(partitio 2)&lt;br&gt;&lt;/font&gt;" style="text;html=1;strokeColor=none;fillColor=none;align=center;verticalAlign=middle;whiteSpace=wrap;rounded=0;" parent="1" vertex="1">
          <mxGeometry x="-2000" y="250" width="60" height="30" as="geometry" />
        </mxCell>
        <mxCell id="pZGgupdEHR9cw1bb7QeQ-51" value="" style="endArrow=none;html=1;rounded=0;fillColor=#d5e8d4;strokeColor=#82b366;strokeWidth=4;entryX=0;entryY=1;entryDx=0;entryDy=0;" parent="1" edge="1" target="zmSvyfduXFzZ5QXLBwxS-6">
          <mxGeometry width="50" height="50" relative="1" as="geometry">
            <mxPoint x="-1840" y="700" as="sourcePoint" />
            <mxPoint x="-1840" y="440" as="targetPoint" />
          </mxGeometry>
        </mxCell>
        <mxCell id="pZGgupdEHR9cw1bb7QeQ-52" value="" style="endArrow=none;html=1;rounded=0;fillColor=#f8cecc;strokeColor=#b85450;strokeWidth=4;dashed=1;dashPattern=1 2;" parent="1" edge="1">
          <mxGeometry width="50" height="50" relative="1" as="geometry">
            <mxPoint x="-2000" y="480" as="sourcePoint" />
            <mxPoint x="-2000" y="240" as="targetPoint" />
          </mxGeometry>
        </mxCell>
        <mxCell id="pZGgupdEHR9cw1bb7QeQ-53" value="" style="endArrow=none;html=1;rounded=0;fillColor=#f8cecc;strokeColor=#b85450;strokeWidth=4;" parent="1" edge="1">
          <mxGeometry width="50" height="50" relative="1" as="geometry">
            <mxPoint x="-2000" y="700" as="sourcePoint" />
            <mxPoint x="-2000" y="480" as="targetPoint" />
          </mxGeometry>
        </mxCell>
        <mxCell id="pZGgupdEHR9cw1bb7QeQ-55" style="edgeStyle=orthogonalEdgeStyle;rounded=0;orthogonalLoop=1;jettySize=auto;html=1;exitX=0.5;exitY=1;exitDx=0;exitDy=0;" parent="1" source="pZGgupdEHR9cw1bb7QeQ-54" target="pZGgupdEHR9cw1bb7QeQ-54" edge="1">
          <mxGeometry relative="1" as="geometry" />
        </mxCell>
        <mxCell id="zmSvyfduXFzZ5QXLBwxS-2" value="group.id : foo&lt;br&gt;group.instance.id : a" style="text;html=1;strokeColor=none;fillColor=none;align=center;verticalAlign=middle;whiteSpace=wrap;rounded=0;" vertex="1" parent="1">
          <mxGeometry x="-2217.5" y="50" width="115" height="30" as="geometry" />
        </mxCell>
        <mxCell id="zmSvyfduXFzZ5QXLBwxS-3" value="group.id : foo&lt;br&gt;group.instance.id : b" style="text;html=1;strokeColor=none;fillColor=none;align=center;verticalAlign=middle;whiteSpace=wrap;rounded=0;" vertex="1" parent="1">
          <mxGeometry x="-1930" y="50" width="115" height="30" as="geometry" />
        </mxCell>
        <mxCell id="zmSvyfduXFzZ5QXLBwxS-4" value="" style="endArrow=none;html=1;rounded=0;fillColor=#e1d5e7;strokeColor=#9673a6;strokeWidth=4;jumpStyle=none;" edge="1" parent="1">
          <mxGeometry width="50" height="50" relative="1" as="geometry">
            <mxPoint x="-1800" y="700" as="sourcePoint" />
            <mxPoint x="-1800" y="80" as="targetPoint" />
          </mxGeometry>
        </mxCell>
        <mxCell id="zmSvyfduXFzZ5QXLBwxS-5" value="" style="endArrow=none;html=1;rounded=0;fillColor=#fff2cc;strokeColor=#d6b656;strokeWidth=4;jumpStyle=none;" edge="1" parent="1">
          <mxGeometry width="50" height="50" relative="1" as="geometry">
            <mxPoint x="-1680" y="700" as="sourcePoint" />
            <mxPoint x="-1680" y="80" as="targetPoint" />
          </mxGeometry>
        </mxCell>
        <mxCell id="zmSvyfduXFzZ5QXLBwxS-6" value="Heartbeat&lt;br&gt;Thread" style="text;html=1;strokeColor=none;fillColor=none;align=center;verticalAlign=middle;whiteSpace=wrap;rounded=0;" vertex="1" parent="1">
          <mxGeometry x="-1840" y="50" width="115" height="30" as="geometry" />
        </mxCell>
        <mxCell id="zmSvyfduXFzZ5QXLBwxS-7" value="Group&lt;br&gt;Coordinator" style="text;html=1;strokeColor=none;fillColor=none;align=center;verticalAlign=middle;whiteSpace=wrap;rounded=0;" vertex="1" parent="1">
          <mxGeometry x="-1720" y="50" width="70" height="30" as="geometry" />
        </mxCell>
        <mxCell id="zmSvyfduXFzZ5QXLBwxS-9" value="&lt;font style=&quot;font-size: 11px;&quot;&gt;Process Message&lt;/font&gt;" style="text;html=1;strokeColor=none;fillColor=none;align=center;verticalAlign=middle;whiteSpace=wrap;rounded=0;" vertex="1" parent="1">
          <mxGeometry x="-2261.4799999999996" y="320" width="90.74" height="30" as="geometry" />
        </mxCell>
        <mxCell id="zmSvyfduXFzZ5QXLBwxS-10" value="" style="endArrow=classic;html=1;rounded=0;" edge="1" parent="1">
          <mxGeometry width="50" height="50" relative="1" as="geometry">
            <mxPoint x="-2170.74" y="320" as="sourcePoint" />
            <mxPoint x="-2170.74" y="390" as="targetPoint" />
          </mxGeometry>
        </mxCell>
        <mxCell id="zmSvyfduXFzZ5QXLBwxS-11" value="" style="endArrow=classic;html=1;rounded=0;" edge="1" parent="1">
          <mxGeometry width="50" height="50" relative="1" as="geometry">
            <mxPoint x="-2160" y="390" as="sourcePoint" />
            <mxPoint x="-2040" y="430" as="targetPoint" />
          </mxGeometry>
        </mxCell>
        <mxCell id="zmSvyfduXFzZ5QXLBwxS-12" value="" style="endArrow=classic;html=1;rounded=0;" edge="1" parent="1">
          <mxGeometry width="50" height="50" relative="1" as="geometry">
            <mxPoint x="-2040" y="430" as="sourcePoint" />
            <mxPoint x="-2160" y="470" as="targetPoint" />
          </mxGeometry>
        </mxCell>
        <mxCell id="zmSvyfduXFzZ5QXLBwxS-13" value="&lt;font style=&quot;font-size: 9px;&quot;&gt;Poll&lt;/font&gt;" style="text;html=1;strokeColor=none;fillColor=none;align=center;verticalAlign=middle;whiteSpace=wrap;rounded=0;" vertex="1" parent="1">
          <mxGeometry x="-2125" y="390" width="60" height="30" as="geometry" />
        </mxCell>
        <mxCell id="zmSvyfduXFzZ5QXLBwxS-14" value="&lt;font style=&quot;font-size: 11px;&quot;&gt;Process Message&lt;/font&gt;" style="text;html=1;strokeColor=none;fillColor=none;align=center;verticalAlign=middle;whiteSpace=wrap;rounded=0;" vertex="1" parent="1">
          <mxGeometry x="-2261.4799999999996" y="470" width="90.74" height="30" as="geometry" />
        </mxCell>
        <mxCell id="zmSvyfduXFzZ5QXLBwxS-15" value="" style="endArrow=classic;html=1;rounded=0;" edge="1" parent="1">
          <mxGeometry width="50" height="50" relative="1" as="geometry">
            <mxPoint x="-2170.74" y="470" as="sourcePoint" />
            <mxPoint x="-2170.74" y="540" as="targetPoint" />
          </mxGeometry>
        </mxCell>
        <mxCell id="zmSvyfduXFzZ5QXLBwxS-16" value="" style="endArrow=classic;html=1;rounded=0;" edge="1" parent="1">
          <mxGeometry width="50" height="50" relative="1" as="geometry">
            <mxPoint x="-2160" y="540" as="sourcePoint" />
            <mxPoint x="-2040" y="580" as="targetPoint" />
          </mxGeometry>
        </mxCell>
        <mxCell id="zmSvyfduXFzZ5QXLBwxS-17" value="" style="endArrow=classic;html=1;rounded=0;" edge="1" parent="1">
          <mxGeometry width="50" height="50" relative="1" as="geometry">
            <mxPoint x="-2040" y="580" as="sourcePoint" />
            <mxPoint x="-2160" y="620" as="targetPoint" />
          </mxGeometry>
        </mxCell>
        <mxCell id="zmSvyfduXFzZ5QXLBwxS-18" value="&lt;font style=&quot;font-size: 9px;&quot;&gt;Poll&lt;/font&gt;" style="text;html=1;strokeColor=none;fillColor=none;align=center;verticalAlign=middle;whiteSpace=wrap;rounded=0;" vertex="1" parent="1">
          <mxGeometry x="-2125" y="540" width="60" height="30" as="geometry" />
        </mxCell>
        <mxCell id="zmSvyfduXFzZ5QXLBwxS-19" value="&lt;font style=&quot;font-size: 11px;&quot;&gt;Process Message&lt;/font&gt;" style="text;html=1;strokeColor=none;fillColor=none;align=center;verticalAlign=middle;whiteSpace=wrap;rounded=0;" vertex="1" parent="1">
          <mxGeometry x="-2261.4799999999996" y="620" width="90.74" height="30" as="geometry" />
        </mxCell>
        <mxCell id="zmSvyfduXFzZ5QXLBwxS-20" value="" style="endArrow=classic;html=1;rounded=0;" edge="1" parent="1">
          <mxGeometry width="50" height="50" relative="1" as="geometry">
            <mxPoint x="-2170.74" y="620" as="sourcePoint" />
            <mxPoint x="-2170.74" y="690" as="targetPoint" />
          </mxGeometry>
        </mxCell>
        <mxCell id="zmSvyfduXFzZ5QXLBwxS-21" value="" style="endArrow=none;html=1;rounded=0;endFill=0;" edge="1" parent="1">
          <mxGeometry width="50" height="50" relative="1" as="geometry">
            <mxPoint x="-2160" y="690" as="sourcePoint" />
            <mxPoint x="-2130" y="700" as="targetPoint" />
          </mxGeometry>
        </mxCell>
        <mxCell id="zmSvyfduXFzZ5QXLBwxS-24" value="" style="endArrow=classic;html=1;rounded=0;" edge="1" parent="1">
          <mxGeometry width="50" height="50" relative="1" as="geometry">
            <mxPoint x="-1840" y="90" as="sourcePoint" />
            <mxPoint x="-2000" y="130" as="targetPoint" />
          </mxGeometry>
        </mxCell>
        <mxCell id="zmSvyfduXFzZ5QXLBwxS-25" value="" style="endArrow=classic;html=1;rounded=0;" edge="1" parent="1">
          <mxGeometry width="50" height="50" relative="1" as="geometry">
            <mxPoint x="-2000" y="130" as="sourcePoint" />
            <mxPoint x="-1840" y="170" as="targetPoint" />
          </mxGeometry>
        </mxCell>
        <mxCell id="zmSvyfduXFzZ5QXLBwxS-26" value="&lt;font style=&quot;font-size: 9px;&quot;&gt;Poll&lt;/font&gt;" style="text;html=1;strokeColor=none;fillColor=none;align=center;verticalAlign=middle;whiteSpace=wrap;rounded=0;" vertex="1" parent="1">
          <mxGeometry x="-1920" y="80" width="60" height="30" as="geometry" />
        </mxCell>
        <mxCell id="zmSvyfduXFzZ5QXLBwxS-27" value="" style="endArrow=classic;html=1;rounded=0;" edge="1" parent="1">
          <mxGeometry width="50" height="50" relative="1" as="geometry">
            <mxPoint x="-1800" y="110" as="sourcePoint" />
            <mxPoint x="-1680" y="150" as="targetPoint" />
          </mxGeometry>
        </mxCell>
        <mxCell id="zmSvyfduXFzZ5QXLBwxS-28" value="" style="endArrow=classic;html=1;rounded=0;" edge="1" parent="1">
          <mxGeometry width="50" height="50" relative="1" as="geometry">
            <mxPoint x="-1680" y="150" as="sourcePoint" />
            <mxPoint x="-1800" y="190" as="targetPoint" />
          </mxGeometry>
        </mxCell>
        <mxCell id="zmSvyfduXFzZ5QXLBwxS-29" value="&lt;font size=&quot;1&quot;&gt;Heartbeat&lt;/font&gt;" style="text;html=1;strokeColor=none;fillColor=none;align=center;verticalAlign=middle;whiteSpace=wrap;rounded=0;" vertex="1" parent="1">
          <mxGeometry x="-1780" y="100" width="60" height="30" as="geometry" />
        </mxCell>
        <mxCell id="zmSvyfduXFzZ5QXLBwxS-30" value="&lt;font style=&quot;font-size: 11px;&quot;&gt;Process Message&lt;/font&gt;" style="text;html=1;strokeColor=none;fillColor=none;align=center;verticalAlign=middle;whiteSpace=wrap;rounded=0;" vertex="1" parent="1">
          <mxGeometry x="-1940" y="170" width="90" height="30" as="geometry" />
        </mxCell>
        <mxCell id="zmSvyfduXFzZ5QXLBwxS-31" value="" style="endArrow=classic;html=1;rounded=0;" edge="1" parent="1">
          <mxGeometry width="50" height="50" relative="1" as="geometry">
            <mxPoint x="-1849.9999999999998" y="170" as="sourcePoint" />
            <mxPoint x="-1849.9999999999998" y="240" as="targetPoint" />
          </mxGeometry>
        </mxCell>
        <mxCell id="zmSvyfduXFzZ5QXLBwxS-32" value="Consumer B&lt;br&gt;stop, leave group" style="text;html=1;strokeColor=none;fillColor=none;align=center;verticalAlign=middle;whiteSpace=wrap;rounded=0;" vertex="1" parent="1">
          <mxGeometry x="-1650" y="230" width="100" height="30" as="geometry" />
        </mxCell>
        <mxCell id="zmSvyfduXFzZ5QXLBwxS-33" value="" style="html=1;rounded=0;startArrow=baseDash;startFill=0;endArrow=baseDash;endFill=0;fillColor=#f5f5f5;strokeColor=#666666;" edge="1" parent="1">
          <mxGeometry width="100" relative="1" as="geometry">
            <mxPoint x="-1670" y="150" as="sourcePoint" />
            <mxPoint x="-1670" y="460" as="targetPoint" />
          </mxGeometry>
        </mxCell>
        <mxCell id="zmSvyfduXFzZ5QXLBwxS-34" value="&lt;font style=&quot;font-size: 9px;&quot;&gt;session.timeout.ms&lt;br&gt;&lt;/font&gt;" style="text;html=1;strokeColor=none;fillColor=none;align=center;verticalAlign=middle;whiteSpace=wrap;rounded=0;" vertex="1" parent="1">
          <mxGeometry x="-1650" y="150" width="60" height="30" as="geometry" />
        </mxCell>
        <mxCell id="zmSvyfduXFzZ5QXLBwxS-35" value="" style="endArrow=none;dashed=1;html=1;rounded=0;fillColor=#f8cecc;strokeColor=#b85450;strokeWidth=2;dashPattern=1 2;" edge="1" parent="1">
          <mxGeometry width="50" height="50" relative="1" as="geometry">
            <mxPoint x="-2020" y="380" as="sourcePoint" />
            <mxPoint x="-1640" y="380" as="targetPoint" />
          </mxGeometry>
        </mxCell>
        <mxCell id="zmSvyfduXFzZ5QXLBwxS-36" value="Consumer B&lt;br&gt;restart, rejoin group" style="text;html=1;strokeColor=none;fillColor=none;align=center;verticalAlign=middle;whiteSpace=wrap;rounded=0;" vertex="1" parent="1">
          <mxGeometry x="-1650" y="370" width="110" height="30" as="geometry" />
        </mxCell>
        <mxCell id="zmSvyfduXFzZ5QXLBwxS-39" value="" style="endArrow=classic;html=1;rounded=0;" edge="1" parent="1">
          <mxGeometry width="50" height="50" relative="1" as="geometry">
            <mxPoint x="-1800" y="380" as="sourcePoint" />
            <mxPoint x="-1680" y="420" as="targetPoint" />
          </mxGeometry>
        </mxCell>
        <mxCell id="zmSvyfduXFzZ5QXLBwxS-40" value="" style="endArrow=classic;html=1;rounded=0;" edge="1" parent="1">
          <mxGeometry width="50" height="50" relative="1" as="geometry">
            <mxPoint x="-1680" y="420" as="sourcePoint" />
            <mxPoint x="-1800" y="460" as="targetPoint" />
          </mxGeometry>
        </mxCell>
        <mxCell id="zmSvyfduXFzZ5QXLBwxS-41" value="&lt;font size=&quot;1&quot;&gt;JoinGroup&lt;/font&gt;" style="text;html=1;strokeColor=none;fillColor=none;align=center;verticalAlign=middle;whiteSpace=wrap;rounded=0;" vertex="1" parent="1">
          <mxGeometry x="-1780" y="370" width="60" height="30" as="geometry" />
        </mxCell>
        <mxCell id="zmSvyfduXFzZ5QXLBwxS-42" value="" style="endArrow=none;dashed=1;html=1;rounded=0;fillColor=#f8cecc;strokeColor=#b85450;strokeWidth=2;dashPattern=1 2;" edge="1" parent="1">
          <mxGeometry width="50" height="50" relative="1" as="geometry">
            <mxPoint x="-2020" y="510" as="sourcePoint" />
            <mxPoint x="-1640" y="510" as="targetPoint" />
          </mxGeometry>
        </mxCell>
        <mxCell id="zmSvyfduXFzZ5QXLBwxS-43" value="&lt;font style=&quot;font-size: 9px;&quot;&gt;Processing&lt;br&gt;resume&lt;br&gt;(partitio 2)&lt;br&gt;&lt;/font&gt;" style="text;html=1;strokeColor=none;fillColor=none;align=center;verticalAlign=middle;whiteSpace=wrap;rounded=0;" vertex="1" parent="1">
          <mxGeometry x="-2000" y="530" width="60" height="30" as="geometry" />
        </mxCell>
        <mxCell id="zmSvyfduXFzZ5QXLBwxS-44" value="" style="endArrow=classic;html=1;rounded=0;" edge="1" parent="1">
          <mxGeometry width="50" height="50" relative="1" as="geometry">
            <mxPoint x="-1840" y="470" as="sourcePoint" />
            <mxPoint x="-2000" y="510" as="targetPoint" />
          </mxGeometry>
        </mxCell>
        <mxCell id="zmSvyfduXFzZ5QXLBwxS-45" value="" style="endArrow=classic;html=1;rounded=0;" edge="1" parent="1">
          <mxGeometry width="50" height="50" relative="1" as="geometry">
            <mxPoint x="-2000" y="510" as="sourcePoint" />
            <mxPoint x="-1840" y="550" as="targetPoint" />
          </mxGeometry>
        </mxCell>
        <mxCell id="zmSvyfduXFzZ5QXLBwxS-46" value="&lt;font style=&quot;font-size: 9px;&quot;&gt;Poll&lt;/font&gt;" style="text;html=1;strokeColor=none;fillColor=none;align=center;verticalAlign=middle;whiteSpace=wrap;rounded=0;" vertex="1" parent="1">
          <mxGeometry x="-1920" y="460" width="60" height="30" as="geometry" />
        </mxCell>
        <mxCell id="zmSvyfduXFzZ5QXLBwxS-47" value="&lt;font style=&quot;font-size: 11px;&quot;&gt;Process Message&lt;/font&gt;" style="text;html=1;strokeColor=none;fillColor=none;align=center;verticalAlign=middle;whiteSpace=wrap;rounded=0;" vertex="1" parent="1">
          <mxGeometry x="-1940" y="550" width="90" height="30" as="geometry" />
        </mxCell>
        <mxCell id="zmSvyfduXFzZ5QXLBwxS-48" value="" style="endArrow=classic;html=1;rounded=0;" edge="1" parent="1">
          <mxGeometry width="50" height="50" relative="1" as="geometry">
            <mxPoint x="-1849.9999999999998" y="550" as="sourcePoint" />
            <mxPoint x="-1849.9999999999998" y="620" as="targetPoint" />
          </mxGeometry>
        </mxCell>
        <mxCell id="zmSvyfduXFzZ5QXLBwxS-49" value="" style="endArrow=classic;html=1;rounded=0;" edge="1" parent="1">
          <mxGeometry width="50" height="50" relative="1" as="geometry">
            <mxPoint x="-1800" y="580" as="sourcePoint" />
            <mxPoint x="-1680" y="620" as="targetPoint" />
          </mxGeometry>
        </mxCell>
        <mxCell id="zmSvyfduXFzZ5QXLBwxS-50" value="" style="endArrow=classic;html=1;rounded=0;" edge="1" parent="1">
          <mxGeometry width="50" height="50" relative="1" as="geometry">
            <mxPoint x="-1680" y="620" as="sourcePoint" />
            <mxPoint x="-1800" y="660" as="targetPoint" />
          </mxGeometry>
        </mxCell>
        <mxCell id="zmSvyfduXFzZ5QXLBwxS-51" value="&lt;font size=&quot;1&quot;&gt;Heartbeat&lt;/font&gt;" style="text;html=1;strokeColor=none;fillColor=none;align=center;verticalAlign=middle;whiteSpace=wrap;rounded=0;" vertex="1" parent="1">
          <mxGeometry x="-1780" y="570" width="60" height="30" as="geometry" />
        </mxCell>
        <mxCell id="zmSvyfduXFzZ5QXLBwxS-52" value="" style="endArrow=classic;html=1;rounded=0;" edge="1" parent="1">
          <mxGeometry width="50" height="50" relative="1" as="geometry">
            <mxPoint x="-1840" y="620" as="sourcePoint" />
            <mxPoint x="-2000" y="660" as="targetPoint" />
          </mxGeometry>
        </mxCell>
        <mxCell id="zmSvyfduXFzZ5QXLBwxS-53" value="" style="endArrow=none;html=1;rounded=0;endFill=0;entryX=0.278;entryY=0.985;entryDx=0;entryDy=0;entryPerimeter=0;" edge="1" parent="1" target="zmSvyfduXFzZ5QXLBwxS-8">
          <mxGeometry width="50" height="50" relative="1" as="geometry">
            <mxPoint x="-2000" y="660" as="sourcePoint" />
            <mxPoint x="-1900" y="690" as="targetPoint" />
          </mxGeometry>
        </mxCell>
        <mxCell id="zmSvyfduXFzZ5QXLBwxS-54" value="&lt;font style=&quot;font-size: 9px;&quot;&gt;Poll&lt;/font&gt;" style="text;html=1;strokeColor=none;fillColor=none;align=center;verticalAlign=middle;whiteSpace=wrap;rounded=0;" vertex="1" parent="1">
          <mxGeometry x="-1920" y="610" width="60" height="30" as="geometry" />
        </mxCell>
        <mxCell id="zmSvyfduXFzZ5QXLBwxS-57" value="" style="html=1;rounded=0;startArrow=baseDash;startFill=0;endArrow=none;endFill=0;fillColor=#f5f5f5;strokeColor=#666666;" edge="1" parent="1">
          <mxGeometry width="100" relative="1" as="geometry">
            <mxPoint x="-1660" y="420" as="sourcePoint" />
            <mxPoint x="-1660" y="700" as="targetPoint" />
          </mxGeometry>
        </mxCell>
        <mxCell id="zmSvyfduXFzZ5QXLBwxS-58" value="&lt;font style=&quot;font-size: 9px;&quot;&gt;session.timeout.ms&lt;br&gt;&lt;/font&gt;" style="text;html=1;strokeColor=none;fillColor=none;align=center;verticalAlign=middle;whiteSpace=wrap;rounded=0;" vertex="1" parent="1">
          <mxGeometry x="-1640" y="420" width="60" height="30" as="geometry" />
        </mxCell>
      </root>
    </mxGraphModel>
  </diagram>
</mxfile>
